<svg xmlns="http://www.w3.org/2000/svg" viewBox="0 0 160 160" fill="none">
<defs><linearGradient id="r" x1="30" y1="25" x2="115" y2="140" gradientUnits="userSpaceOnUse"><stop stop-color="#f46559"/><stop offset=".5" stop-color="#ce3037"/><stop offset="1" stop-color="#9e242e"/></linearGradient></defs>
<path d="M64 141 73 52 34 38 24 51 21 48 30 24 40 18 44 22 38 30 80 43 122 30 116 22 120 18 130 24 139 48 136 51 126 38 87 52 96 141Z" fill="url(#r)" stroke="#9b2933" stroke-width="2.5" stroke-linejoin="round"/>
<path d="M78 59 73 119M37 33 77 47" stroke="#ff9a80" stroke-width="2.5" stroke-linecap="round"/>
<path d="m80 58-1 14m-1 6-1 14m-1 6-1 14" stroke="#f4cf58" stroke-width="3" stroke-linecap="round"/>
<path d="M62 142h36" stroke="#cfac55" stroke-width="4" stroke-linecap="round"/>
</svg>
